<?xml version="1.0" encoding="UTF-8" standalone="no"?>
<!-- Created with Inkscape (http://www.inkscape.org/) -->

<svg
   width="63.379688mm"
   height="42.026684mm"
   viewBox="0 0 63.379688 42.026685"
   version="1.1"
   id="svg1"
   inkscape:version="1.3.2 (1:1.3.2+202311252150+091e20ef0f)"
   sodipodi:docname="eigenvalue_problems.svg"
   xmlns:inkscape="http://www.inkscape.org/namespaces/inkscape"
   xmlns:sodipodi="http://sodipodi.sourceforge.net/DTD/sodipodi-0.dtd"
   xmlns="http://www.w3.org/2000/svg"
   xmlns:svg="http://www.w3.org/2000/svg"
   xmlns:ns4="http://www.iki.fi/pav/software/textext/">
  <sodipodi:namedview
     id="namedview1"
     pagecolor="#ffffff"
     bordercolor="#000000"
     borderopacity="0.25"
     inkscape:showpageshadow="2"
     inkscape:pageopacity="0.0"
     inkscape:pagecheckerboard="0"
     inkscape:deskcolor="#d1d1d1"
     inkscape:document-units="mm"
     inkscape:zoom="2.1014404"
     inkscape:cx="84.703806"
     inkscape:cy="54.248505"
     inkscape:window-width="1850"
     inkscape:window-height="1016"
     inkscape:window-x="70"
     inkscape:window-y="147"
     inkscape:window-maximized="1"
     inkscape:current-layer="layer1" />
  <defs
     id="defs1" />
  <g
     inkscape:label="Layer 1"
     inkscape:groupmode="layer"
     id="layer1"
     transform="translate(-72.911401,-127.71151)">
    <rect
       style="fill:none;stroke:#ffffff;stroke-width:0.214842"
       id="rect1"
       width="63.164845"
       height="41.81184"
       x="73.018822"
       y="127.81893" />
    <g
       transform="matrix(1.1062617,0,0,1.1062617,77.500286,144.73261)"
       ns4:version="1.9.0"
       ns4:texconverter="pdflatex"
       ns4:pdfconverter="inkscape"
       ns4:text="$\\boldsymbol{Ax}=\\lambda\\boldsymbol{Bx}$"
       ns4:preamble="/home/bleyerj/.config/inkscape/extensions/textext/default_packages.tex"
       ns4:scale="4.326867888587158"
       ns4:alignment="middle center"
       ns4:stroke-to-path="0"
       ns4:inkscapeversion="1.3.2"
       id="g3207"
       ns4:jacobian_sqrt="1.52642"
       style="stroke-width:0">
      <defs
         id="id-6eacb72a-9619-420c-ac57-609f5d91fabf"
         style="stroke-width:0">
        <g
           id="id-a169c767-f5d9-4c2b-9690-5d6ba28da17d"
           style="stroke-width:0">
          <symbol
             overflow="visible"
             id="id-c24e7d26-174d-4984-ae3d-6c84663505fc"
             style="stroke-width:0">
            <path
               style="stroke:none;stroke-width:0"
               d=""
               id="id-4b7492d0-99e0-4ae0-b537-7d4cc2b9cc5a" />
          </symbol>
          <symbol
             overflow="visible"
             id="id-7f8f0be2-5e9c-4210-bcfb-c8533dfd849f"
             style="stroke-width:0">
            <path
               style="stroke:none;stroke-width:0"
               d="m 6.4375,-6.796875 c -0.046875,-0.25 -0.09375,-0.296875 -0.34375,-0.296875 -0.21875,0 -0.296875,0.046875 -0.4375,0.25 l -3.921875,6 c -0.125,0.1875 -0.234375,0.359375 -0.96875,0.375 -0.140625,0 -0.3125,0 -0.3125,0.296875 0,0.078125 0.0625,0.171875 0.1875,0.171875 0.296875,0 0.640625,-0.03125 0.9375,-0.03125 0.375,0 0.75,0.03125 1.109375,0.03125 0.078125,0 0.265625,0 0.265625,-0.296875 0,-0.171875 -0.171875,-0.171875 -0.25,-0.171875 -0.078125,0 -0.359375,0 -0.578125,-0.109375 L 3.046875,-1.96875 h 2.6875 l 0.234375,1.453125 c -0.203125,0.03125 -0.5,0.046875 -0.65625,0.046875 -0.203125,0 -0.375,0 -0.375,0.296875 C 4.9375,-0.046875 5.046875,0 5.15625,0 5.5,0 6.3125,-0.03125 6.65625,-0.03125 c 0.21875,0 0.453125,0.015625 0.6875,0.015625 C 7.5625,-0.015625 7.8125,0 8.03125,0 8.125,0 8.3125,0 8.3125,-0.296875 c 0,-0.171875 -0.140625,-0.171875 -0.390625,-0.171875 -0.140625,0 -0.25,0 -0.390625,-0.015625 -0.125,0 -0.140625,-0.015625 -0.171875,-0.1875 z m -1.21875,1.484375 0.4375,2.875 h -2.3125 z m 0,0"
               id="id-d5a09d15-4a12-48fa-8450-cf58d6ca3cf6" />
          </symbol>
          <symbol
             overflow="visible"
             id="id-f2193984-de6b-4f7d-9ed5-fd449e22ad5a"
             style="stroke-width:0">
            <path
               style="stroke:none;stroke-width:0"
               d="m 5.34375,-4 c -0.359375,0.109375 -0.53125,0.4375 -0.53125,0.6875 0,0.21875 0.15625,0.46875 0.484375,0.46875 0.359375,0 0.71875,-0.296875 0.71875,-0.78125 C 6.015625,-4.15625 5.5,-4.5 4.890625,-4.5 4.3125,-4.5 3.953125,-4.078125 3.8125,-3.890625 3.5625,-4.3125 3.015625,-4.5 2.4375,-4.5 c -1.25,0 -1.921875,1.21875 -1.921875,1.546875 0,0.140625 0.140625,0.140625 0.234375,0.140625 0.125,0 0.1875,0 0.234375,-0.125 0.28125,-0.90625 1,-1.203125 1.40625,-1.203125 0.375,0 0.5625,0.171875 0.5625,0.484375 0,0.203125 -0.140625,0.75 -0.234375,1.109375 L 2.375,-1.1875 c -0.140625,0.609375 -0.5,0.90625 -0.84375,0.90625 -0.046875,0 -0.28125,0 -0.46875,-0.140625 0.359375,-0.109375 0.53125,-0.453125 0.53125,-0.6875 0,-0.21875 -0.171875,-0.46875 -0.5,-0.46875 -0.34375,0 -0.71875,0.296875 -0.71875,0.78125 0,0.53125 0.53125,0.875 1.140625,0.875 0.5625,0 0.9375,-0.421875 1.0625,-0.609375 0.25,0.421875 0.8125,0.609375 1.375,0.609375 1.265625,0 1.9375,-1.21875 1.9375,-1.546875 0,-0.140625 -0.15625,-0.140625 -0.234375,-0.140625 -0.125,0 -0.1875,0 -0.234375,0.125 -0.28125,0.90625 -1,1.203125 -1.421875,1.203125 -0.375,0 -0.546875,-0.171875 -0.546875,-0.5 0,-0.203125 0.125,-0.734375 0.21875,-1.109375 0.0625,-0.25 0.296875,-1.1875 0.34375,-1.34375 0.15625,-0.609375 0.5,-0.90625 0.84375,-0.90625 0.0625,0 0.28125,0 0.484375,0.140625 z m 0,0"
               id="id-3afee70d-fcd7-457d-b59f-265a6683a438" />
          </symbol>
          <symbol
             overflow="visible"
             id="id-75c3b7de-9990-4d9b-8efb-f39b5271da50"
             style="stroke-width:0">
            <path
               style="stroke:none;stroke-width:0"
               d="M 1.625,-0.671875 C 1.578125,-0.515625 1.578125,-0.5 1.390625,-0.484375 1.21875,-0.46875 1.03125,-0.46875 0.875,-0.46875 c -0.265625,0 -0.28125,0 -0.328125,0.015625 -0.125,0.078125 -0.125,0.234375 -0.125,0.28125 C 0.421875,0 0.609375,0 0.765625,0 H 5 c 2.078125,0 3.015625,-1.3125 3.015625,-2.203125 0,-0.859375 -0.75,-1.28125 -1.671875,-1.359375 1.59375,-0.296875 2.171875,-1.21875 2.171875,-1.890625 0,-0.8125 -0.71875,-1.390625 -2.125,-1.390625 h -4 c -0.203125,0 -0.359375,0 -0.359375,0.296875 0,0.171875 0.125,0.171875 0.40625,0.171875 0.21875,0 0.40625,0.015625 0.609375,0.03125 z M 4.296875,-6.1875 C 4.34375,-6.34375 4.34375,-6.34375 4.40625,-6.359375 4.5,-6.375 4.5625,-6.375 4.671875,-6.375 H 6.15625 c 0.203125,0 1.015625,0 1.015625,0.875 0,0.6875 -0.5625,1.765625 -1.921875,1.765625 H 3.671875 Z m -1.1875,5.71875 c -0.15625,0 -0.171875,0 -0.234375,-0.015625 L 3.59375,-3.375 h 1.9375 c 0.265625,0 1.09375,0 1.09375,1.015625 0,0.765625 -0.5,1.890625 -1.921875,1.890625 z m 0,0"
               id="id-df82777e-76ff-467c-b21c-4923b9bfdbfa" />
          </symbol>
          <symbol
             overflow="visible"
             id="id-2a2397b4-6017-4e45-8f30-a1cc922b5e9f"
             style="stroke-width:0">
            <path
               style="stroke:none;stroke-width:0"
               d=""
               id="id-6c17a827-06ad-487b-baad-5970e1317333" />
          </symbol>
          <symbol
             overflow="visible"
             id="id-b736ee40-d4bd-493c-9ad0-d732a068c31a"
             style="stroke-width:0">
            <path
               style="stroke:none;stroke-width:0"
               d="m 6.84375,-3.265625 c 0.15625,0 0.34375,0 0.34375,-0.1875 C 7.1875,-3.65625 7,-3.65625 6.859375,-3.65625 h -5.96875 c -0.140625,0 -0.328125,0 -0.328125,0.203125 0,0.1875 0.1875,0.1875 0.328125,0.1875 z m 0.015625,1.9375 c 0.140625,0 0.328125,0 0.328125,-0.203125 0,-0.1875 -0.1875,-0.1875 -0.34375,-0.1875 H 0.890625 c -0.140625,0 -0.328125,0 -0.328125,0.1875 0,0.203125 0.1875,0.203125 0.328125,0.203125 z m 0,0"
               id="id-d73ac2b2-0870-4ae9-b790-df35fe2d71d7" />
          </symbol>
          <symbol
             overflow="visible"
             id="id-94281859-9b5c-405b-b118-1eea259ee8f6"
             style="stroke-width:0">
            <path
               style="stroke:none;stroke-width:0"
               d=""
               id="id-e27dcd0d-b316-4cf9-a38b-ab3062333f81" />
          </symbol>
          <symbol
             overflow="visible"
             id="id-ebf31d6f-ca53-416d-abbe-1478e6c4b8fa"
             style="stroke-width:0">
            <path
               style="stroke:none;stroke-width:0"
               d="m 3.5625,-2.90625 c 0.40625,1.046875 0.890625,2.5625 1.046875,2.796875 0.15625,0.21875 0.25,0.21875 0.53125,0.21875 h 0.21875 c 0.09375,-0.015625 0.109375,-0.0625 0.109375,-0.09375 0,-0.03125 -0.03125,-0.0625 -0.0625,-0.09375 C 5.3125,-0.1875 5.25,-0.34375 5.1875,-0.53125 L 3.15625,-6.203125 c -0.21875,-0.578125 -0.75,-0.71875 -1.21875,-0.71875 -0.046875,0 -0.1875,0 -0.1875,0.109375 0,0.078125 0.078125,0.109375 0.09375,0.109375 C 2.171875,-6.65625 2.25,-6.59375 2.5,-5.90625 l 0.953125,2.703125 -2.75,2.734375 c -0.109375,0.125 -0.171875,0.171875 -0.171875,0.3125 0,0.171875 0.140625,0.28125 0.296875,0.28125 0.15625,0 0.25,-0.109375 0.328125,-0.203125 z m 0,0"
               id="id-f23a7620-7a3a-4307-aab2-0a1ce26b3356" />
          </symbol>
        </g>
      </defs>
      <g
         id="id-b330e131-717d-47c7-aa2f-ec3a3ffcb028"
         transform="translate(-149.165,-127.671)"
         style="stroke-width:0">
        <g
           style="fill:#000000;fill-opacity:1;stroke-width:0"
           id="id-8a59b61c-746f-43ed-ab55-f249dcda444a">
          <g
             transform="translate(148.712,134.765)"
             id="g5153"
             style="stroke-width:0">
            <path
               style="stroke:none;stroke-width:0"
               d="m 6.4375,-6.796875 c -0.046875,-0.25 -0.09375,-0.296875 -0.34375,-0.296875 -0.21875,0 -0.296875,0.046875 -0.4375,0.25 l -3.921875,6 c -0.125,0.1875 -0.234375,0.359375 -0.96875,0.375 -0.140625,0 -0.3125,0 -0.3125,0.296875 0,0.078125 0.0625,0.171875 0.1875,0.171875 0.296875,0 0.640625,-0.03125 0.9375,-0.03125 0.375,0 0.75,0.03125 1.109375,0.03125 0.078125,0 0.265625,0 0.265625,-0.296875 0,-0.171875 -0.171875,-0.171875 -0.25,-0.171875 -0.078125,0 -0.359375,0 -0.578125,-0.109375 L 3.046875,-1.96875 h 2.6875 l 0.234375,1.453125 c -0.203125,0.03125 -0.5,0.046875 -0.65625,0.046875 -0.203125,0 -0.375,0 -0.375,0.296875 C 4.9375,-0.046875 5.046875,0 5.15625,0 5.5,0 6.3125,-0.03125 6.65625,-0.03125 c 0.21875,0 0.453125,0.015625 0.6875,0.015625 C 7.5625,-0.015625 7.8125,0 8.03125,0 8.125,0 8.3125,0 8.3125,-0.296875 c 0,-0.171875 -0.140625,-0.171875 -0.390625,-0.171875 -0.140625,0 -0.25,0 -0.390625,-0.015625 -0.125,0 -0.140625,-0.015625 -0.171875,-0.1875 z m -1.21875,1.484375 0.4375,2.875 h -2.3125 z m 0,0"
               id="id-033cd8f1-3f79-46ae-b769-233c1efac692" />
          </g>
          <g
             transform="translate(157.373,134.765)"
             id="g9224"
             style="stroke-width:0">
            <path
               style="stroke:none;stroke-width:0"
               d="m 5.34375,-4 c -0.359375,0.109375 -0.53125,0.4375 -0.53125,0.6875 0,0.21875 0.15625,0.46875 0.484375,0.46875 0.359375,0 0.71875,-0.296875 0.71875,-0.78125 C 6.015625,-4.15625 5.5,-4.5 4.890625,-4.5 4.3125,-4.5 3.953125,-4.078125 3.8125,-3.890625 3.5625,-4.3125 3.015625,-4.5 2.4375,-4.5 c -1.25,0 -1.921875,1.21875 -1.921875,1.546875 0,0.140625 0.140625,0.140625 0.234375,0.140625 0.125,0 0.1875,0 0.234375,-0.125 0.28125,-0.90625 1,-1.203125 1.40625,-1.203125 0.375,0 0.5625,0.171875 0.5625,0.484375 0,0.203125 -0.140625,0.75 -0.234375,1.109375 L 2.375,-1.1875 c -0.140625,0.609375 -0.5,0.90625 -0.84375,0.90625 -0.046875,0 -0.28125,0 -0.46875,-0.140625 0.359375,-0.109375 0.53125,-0.453125 0.53125,-0.6875 0,-0.21875 -0.171875,-0.46875 -0.5,-0.46875 -0.34375,0 -0.71875,0.296875 -0.71875,0.78125 0,0.53125 0.53125,0.875 1.140625,0.875 0.5625,0 0.9375,-0.421875 1.0625,-0.609375 0.25,0.421875 0.8125,0.609375 1.375,0.609375 1.265625,0 1.9375,-1.21875 1.9375,-1.546875 0,-0.140625 -0.15625,-0.140625 -0.234375,-0.140625 -0.125,0 -0.1875,0 -0.234375,0.125 -0.28125,0.90625 -1,1.203125 -1.421875,1.203125 -0.375,0 -0.546875,-0.171875 -0.546875,-0.5 0,-0.203125 0.125,-0.734375 0.21875,-1.109375 0.0625,-0.25 0.296875,-1.1875 0.34375,-1.34375 0.15625,-0.609375 0.5,-0.90625 0.84375,-0.90625 0.0625,0 0.28125,0 0.484375,0.140625 z m 0,0"
               id="id-d9eee570-1e5e-43e5-8ac6-8cf3356bf0f9" />
          </g>
        </g>
        <g
           style="fill:#000000;fill-opacity:1;stroke-width:0"
           id="id-ecaf08f8-a40a-4d6a-8fa9-05ceabcb5ee6">
          <g
             transform="translate(166.707,134.765)"
             id="g6909"
             style="stroke-width:0">
            <path
               style="stroke:none;stroke-width:0"
               d="m 6.84375,-3.265625 c 0.15625,0 0.34375,0 0.34375,-0.1875 C 7.1875,-3.65625 7,-3.65625 6.859375,-3.65625 h -5.96875 c -0.140625,0 -0.328125,0 -0.328125,0.203125 0,0.1875 0.1875,0.1875 0.328125,0.1875 z m 0.015625,1.9375 c 0.140625,0 0.328125,0 0.328125,-0.203125 0,-0.1875 -0.1875,-0.1875 -0.34375,-0.1875 H 0.890625 c -0.140625,0 -0.328125,0 -0.328125,0.1875 0,0.203125 0.1875,0.203125 0.328125,0.203125 z m 0,0"
               id="id-661be7f3-0133-4677-acb5-96381afe0e03" />
          </g>
        </g>
        <g
           style="fill:#000000;fill-opacity:1;stroke-width:0"
           id="id-7062882f-7a56-4fd8-80f8-583849006f36">
          <g
             transform="translate(177.223,134.765)"
             id="g46"
             style="stroke-width:0">
            <path
               style="stroke:none;stroke-width:0"
               d="m 3.5625,-2.90625 c 0.40625,1.046875 0.890625,2.5625 1.046875,2.796875 0.15625,0.21875 0.25,0.21875 0.53125,0.21875 h 0.21875 c 0.09375,-0.015625 0.109375,-0.0625 0.109375,-0.09375 0,-0.03125 -0.03125,-0.0625 -0.0625,-0.09375 C 5.3125,-0.1875 5.25,-0.34375 5.1875,-0.53125 L 3.15625,-6.203125 c -0.21875,-0.578125 -0.75,-0.71875 -1.21875,-0.71875 -0.046875,0 -0.1875,0 -0.1875,0.109375 0,0.078125 0.078125,0.109375 0.09375,0.109375 C 2.171875,-6.65625 2.25,-6.59375 2.5,-5.90625 l 0.953125,2.703125 -2.75,2.734375 c -0.109375,0.125 -0.171875,0.171875 -0.171875,0.3125 0,0.171875 0.140625,0.28125 0.296875,0.28125 0.15625,0 0.25,-0.109375 0.328125,-0.203125 z m 0,0"
               id="id-c90c3c10-cd05-46c2-8924-722e67feed9b" />
          </g>
        </g>
        <g
           style="fill:#000000;fill-opacity:1;stroke-width:0"
           id="id-4cec74b4-edeb-4a62-a68a-97e5b4f57cda">
          <g
             transform="translate(183.035,134.765)"
             id="g6460"
             style="stroke-width:0">
            <path
               style="stroke:none;stroke-width:0"
               d="M 1.625,-0.671875 C 1.578125,-0.515625 1.578125,-0.5 1.390625,-0.484375 1.21875,-0.46875 1.03125,-0.46875 0.875,-0.46875 c -0.265625,0 -0.28125,0 -0.328125,0.015625 -0.125,0.078125 -0.125,0.234375 -0.125,0.28125 C 0.421875,0 0.609375,0 0.765625,0 H 5 c 2.078125,0 3.015625,-1.3125 3.015625,-2.203125 0,-0.859375 -0.75,-1.28125 -1.671875,-1.359375 1.59375,-0.296875 2.171875,-1.21875 2.171875,-1.890625 0,-0.8125 -0.71875,-1.390625 -2.125,-1.390625 h -4 c -0.203125,0 -0.359375,0 -0.359375,0.296875 0,0.171875 0.125,0.171875 0.40625,0.171875 0.21875,0 0.40625,0.015625 0.609375,0.03125 z M 4.296875,-6.1875 C 4.34375,-6.34375 4.34375,-6.34375 4.40625,-6.359375 4.5,-6.375 4.5625,-6.375 4.671875,-6.375 H 6.15625 c 0.203125,0 1.015625,0 1.015625,0.875 0,0.6875 -0.5625,1.765625 -1.921875,1.765625 H 3.671875 Z m -1.1875,5.71875 c -0.15625,0 -0.171875,0 -0.234375,-0.015625 L 3.59375,-3.375 h 1.9375 c 0.265625,0 1.09375,0 1.09375,1.015625 0,0.765625 -0.5,1.890625 -1.921875,1.890625 z m 0,0"
               id="id-bceb3377-7ae6-4ad7-acad-44caff5e1a5b" />
          </g>
        </g>
        <g
           style="fill:#000000;fill-opacity:1;stroke-width:0"
           id="id-7ca09f71-ce7e-4efd-96a1-d30356eb8fc2">
          <g
             transform="translate(192.145,134.765)"
             id="g1435"
             style="stroke-width:0">
            <path
               style="stroke:none;stroke-width:0"
               d="m 5.34375,-4 c -0.359375,0.109375 -0.53125,0.4375 -0.53125,0.6875 0,0.21875 0.15625,0.46875 0.484375,0.46875 0.359375,0 0.71875,-0.296875 0.71875,-0.78125 C 6.015625,-4.15625 5.5,-4.5 4.890625,-4.5 4.3125,-4.5 3.953125,-4.078125 3.8125,-3.890625 3.5625,-4.3125 3.015625,-4.5 2.4375,-4.5 c -1.25,0 -1.921875,1.21875 -1.921875,1.546875 0,0.140625 0.140625,0.140625 0.234375,0.140625 0.125,0 0.1875,0 0.234375,-0.125 0.28125,-0.90625 1,-1.203125 1.40625,-1.203125 0.375,0 0.5625,0.171875 0.5625,0.484375 0,0.203125 -0.140625,0.75 -0.234375,1.109375 L 2.375,-1.1875 c -0.140625,0.609375 -0.5,0.90625 -0.84375,0.90625 -0.046875,0 -0.28125,0 -0.46875,-0.140625 0.359375,-0.109375 0.53125,-0.453125 0.53125,-0.6875 0,-0.21875 -0.171875,-0.46875 -0.5,-0.46875 -0.34375,0 -0.71875,0.296875 -0.71875,0.78125 0,0.53125 0.53125,0.875 1.140625,0.875 0.5625,0 0.9375,-0.421875 1.0625,-0.609375 0.25,0.421875 0.8125,0.609375 1.375,0.609375 1.265625,0 1.9375,-1.21875 1.9375,-1.546875 0,-0.140625 -0.15625,-0.140625 -0.234375,-0.140625 -0.125,0 -0.1875,0 -0.234375,0.125 -0.28125,0.90625 -1,1.203125 -1.421875,1.203125 -0.375,0 -0.546875,-0.171875 -0.546875,-0.5 0,-0.203125 0.125,-0.734375 0.21875,-1.109375 0.0625,-0.25 0.296875,-1.1875 0.34375,-1.34375 0.15625,-0.609375 0.5,-0.90625 0.84375,-0.90625 0.0625,0 0.28125,0 0.484375,0.140625 z m 0,0"
               id="id-551844e9-46d5-4380-9f45-c8385e993646" />
          </g>
        </g>
      </g>
    </g>
  </g>
</svg>
