<?xml version="1.0" encoding="UTF-8" standalone="no"?>
<!-- Created with Inkscape (http://www.inkscape.org/) -->

<svg
   width="63.379688mm"
   height="42.026684mm"
   viewBox="0 0 63.379688 42.026685"
   version="1.1"
   id="svg1"
   inkscape:version="1.3.2 (1:1.3.2+202311252150+091e20ef0f)"
   sodipodi:docname="linear_problems.svg"
   xmlns:inkscape="http://www.inkscape.org/namespaces/inkscape"
   xmlns:sodipodi="http://sodipodi.sourceforge.net/DTD/sodipodi-0.dtd"
   xmlns="http://www.w3.org/2000/svg"
   xmlns:svg="http://www.w3.org/2000/svg"
   xmlns:ns4="http://www.iki.fi/pav/software/textext/">
  <sodipodi:namedview
     id="namedview1"
     pagecolor="#ffffff"
     bordercolor="#000000"
     borderopacity="0.25"
     inkscape:showpageshadow="2"
     inkscape:pageopacity="0.0"
     inkscape:pagecheckerboard="0"
     inkscape:deskcolor="#d1d1d1"
     inkscape:document-units="mm"
     inkscape:zoom="2.1014404"
     inkscape:cx="84.465874"
     inkscape:cy="54.248505"
     inkscape:window-width="1850"
     inkscape:window-height="1016"
     inkscape:window-x="70"
     inkscape:window-y="147"
     inkscape:window-maximized="1"
     inkscape:current-layer="layer1" />
  <defs
     id="defs1" />
  <g
     inkscape:label="Layer 1"
     inkscape:groupmode="layer"
     id="layer1"
     transform="translate(-72.911401,-127.71151)">
    <g
       transform="matrix(1.5264238,0,0,1.5264238,79.335108,143.25078)"
       ns4:version="1.9.0"
       ns4:texconverter="pdflatex"
       ns4:pdfconverter="inkscape"
       ns4:text="$\\boldsymbol{Ax}=\\boldsymbol{b}$"
       ns4:preamble="/home/bleyerj/.config/inkscape/extensions/textext/default_packages.tex"
       ns4:scale="1.0"
       ns4:alignment="middle center"
       ns4:stroke-to-path="0"
       id="g3207"
       ns4:jacobian_sqrt="0.352778"
       style="stroke-width:0.231114">
      <defs
         id="id-d672b235-3d2d-4890-8c1e-8d5436fdd380">
        <g
           id="id-cec8590b-2382-4138-b643-24671b19fba2">
          <symbol
             overflow="visible"
             id="id-00f91aa6-5b58-467f-8593-adcf9d4d73a7">
            <path
               style="stroke:none;stroke-width:0"
               d=""
               id="id-81097f8a-ceef-4a84-9aa6-43167383eb1b" />
          </symbol>
          <symbol
             overflow="visible"
             id="id-31a98994-6806-474c-83fe-01b5d3d05bfb">
            <path
               style="stroke:none;stroke-width:0"
               d="m 6.4375,-6.796875 c -0.046875,-0.25 -0.09375,-0.296875 -0.34375,-0.296875 -0.21875,0 -0.296875,0.046875 -0.4375,0.25 l -3.921875,6 c -0.125,0.1875 -0.234375,0.359375 -0.96875,0.375 -0.140625,0 -0.3125,0 -0.3125,0.296875 0,0.078125 0.0625,0.171875 0.1875,0.171875 0.296875,0 0.640625,-0.03125 0.9375,-0.03125 0.375,0 0.75,0.03125 1.109375,0.03125 0.078125,0 0.265625,0 0.265625,-0.296875 0,-0.171875 -0.171875,-0.171875 -0.25,-0.171875 -0.078125,0 -0.359375,0 -0.578125,-0.109375 L 3.046875,-1.96875 h 2.6875 l 0.234375,1.453125 c -0.203125,0.03125 -0.5,0.046875 -0.65625,0.046875 -0.203125,0 -0.375,0 -0.375,0.296875 C 4.9375,-0.046875 5.046875,0 5.15625,0 5.5,0 6.3125,-0.03125 6.65625,-0.03125 c 0.21875,0 0.453125,0.015625 0.6875,0.015625 C 7.5625,-0.015625 7.8125,0 8.03125,0 8.125,0 8.3125,0 8.3125,-0.296875 c 0,-0.171875 -0.140625,-0.171875 -0.390625,-0.171875 -0.140625,0 -0.25,0 -0.390625,-0.015625 -0.125,0 -0.140625,-0.015625 -0.171875,-0.1875 z m -1.21875,1.484375 0.4375,2.875 h -2.3125 z m 0,0"
               id="id-72af8f00-c520-4bdc-bf2d-e945478ba032" />
          </symbol>
          <symbol
             overflow="visible"
             id="id-00ced294-f725-4eb3-93c6-735f2a3531a7">
            <path
               style="stroke:none;stroke-width:0"
               d="m 5.34375,-4 c -0.359375,0.109375 -0.53125,0.4375 -0.53125,0.6875 0,0.21875 0.15625,0.46875 0.484375,0.46875 0.359375,0 0.71875,-0.296875 0.71875,-0.78125 C 6.015625,-4.15625 5.5,-4.5 4.890625,-4.5 4.3125,-4.5 3.953125,-4.078125 3.8125,-3.890625 3.5625,-4.3125 3.015625,-4.5 2.4375,-4.5 c -1.25,0 -1.921875,1.21875 -1.921875,1.546875 0,0.140625 0.140625,0.140625 0.234375,0.140625 0.125,0 0.1875,0 0.234375,-0.125 0.28125,-0.90625 1,-1.203125 1.40625,-1.203125 0.375,0 0.5625,0.171875 0.5625,0.484375 0,0.203125 -0.140625,0.75 -0.234375,1.109375 L 2.375,-1.1875 c -0.140625,0.609375 -0.5,0.90625 -0.84375,0.90625 -0.046875,0 -0.28125,0 -0.46875,-0.140625 0.359375,-0.109375 0.53125,-0.453125 0.53125,-0.6875 0,-0.21875 -0.171875,-0.46875 -0.5,-0.46875 -0.34375,0 -0.71875,0.296875 -0.71875,0.78125 0,0.53125 0.53125,0.875 1.140625,0.875 0.5625,0 0.9375,-0.421875 1.0625,-0.609375 0.25,0.421875 0.8125,0.609375 1.375,0.609375 1.265625,0 1.9375,-1.21875 1.9375,-1.546875 0,-0.140625 -0.15625,-0.140625 -0.234375,-0.140625 -0.125,0 -0.1875,0 -0.234375,0.125 -0.28125,0.90625 -1,1.203125 -1.421875,1.203125 -0.375,0 -0.546875,-0.171875 -0.546875,-0.5 0,-0.203125 0.125,-0.734375 0.21875,-1.109375 0.0625,-0.25 0.296875,-1.1875 0.34375,-1.34375 0.15625,-0.609375 0.5,-0.90625 0.84375,-0.90625 0.0625,0 0.28125,0 0.484375,0.140625 z m 0,0"
               id="id-75cc542e-6b74-4323-83fd-4aace5952b24" />
          </symbol>
          <symbol
             overflow="visible"
             id="id-c32c614e-de19-49f4-8e25-2967f13aef33">
            <path
               style="stroke:none;stroke-width:0"
               d="M 2.796875,-6.5625 C 2.84375,-6.703125 2.84375,-6.734375 2.84375,-6.734375 c 0,-0.140625 -0.109375,-0.1875 -0.21875,-0.1875 -0.046875,0 -0.046875,0 -0.078125,0.015625 l -1.28125,0.0625 c -0.140625,0 -0.3125,0.015625 -0.3125,0.296875 0,0.171875 0.1875,0.171875 0.25,0.171875 0.109375,0 0.296875,0 0.421875,0.03125 -0.078125,0.328125 -0.171875,0.765625 -0.28125,1.140625 l -0.6875,2.75 c -0.140625,0.5625 -0.140625,0.671875 -0.140625,0.90625 0,1.28125 0.953125,1.625 1.703125,1.625 1.796875,0 2.828125,-1.625 2.828125,-2.9375 C 5.046875,-4.09375 4.125,-4.5 3.296875,-4.5 c -0.46875,0 -0.875,0.1875 -1.078125,0.3125 z m -0.5625,6.28125 c -0.390625,0 -0.71875,-0.203125 -0.71875,-0.828125 0,-0.3125 0.09375,-0.6875 0.171875,-1 0.09375,-0.375 0.265625,-1.0625 0.34375,-1.359375 0.046875,-0.171875 0.609375,-0.671875 1.21875,-0.671875 0.625,0 0.671875,0.53125 0.671875,0.75 0,0.515625 -0.34375,1.75 -0.5,2.140625 -0.34375,0.796875 -0.90625,0.96875 -1.1875,0.96875 z m 0,0"
               id="id-d18980ef-18ed-4e82-aeea-ceeb9e64bb27" />
          </symbol>
          <symbol
             overflow="visible"
             id="id-43c9cb62-167a-4700-89d0-3f89334f1144">
            <path
               style="stroke:none;stroke-width:0"
               d=""
               id="id-259649d4-381e-408b-b882-951407a7acf1" />
          </symbol>
          <symbol
             overflow="visible"
             id="id-7f2c87aa-71ca-401a-9f97-0909b8821552">
            <path
               style="stroke:none;stroke-width:0"
               d="m 6.84375,-3.265625 c 0.15625,0 0.34375,0 0.34375,-0.1875 C 7.1875,-3.65625 7,-3.65625 6.859375,-3.65625 h -5.96875 c -0.140625,0 -0.328125,0 -0.328125,0.203125 0,0.1875 0.1875,0.1875 0.328125,0.1875 z m 0.015625,1.9375 c 0.140625,0 0.328125,0 0.328125,-0.203125 0,-0.1875 -0.1875,-0.1875 -0.34375,-0.1875 H 0.890625 c -0.140625,0 -0.328125,0 -0.328125,0.1875 0,0.203125 0.1875,0.203125 0.328125,0.203125 z m 0,0"
               id="id-f131a0d2-79fd-469d-9169-3bc1445d2135" />
          </symbol>
        </g>
      </defs>
      <g
         id="id-62954ed5-742f-4e19-be6f-dfa858c8fca2"
         transform="translate(-149.165,-127.671)"
         style="stroke-width:0.231114">
        <g
           style="fill:#000000;fill-opacity:1;stroke-width:0.231114"
           id="id-326d6960-519e-42dd-bf60-fb414d698ece">
          <g
             transform="translate(148.712,134.765)"
             id="g2957"
             style="stroke-width:0.231114">
            <path
               style="stroke:none;stroke-width:0"
               d="m 6.4375,-6.796875 c -0.046875,-0.25 -0.09375,-0.296875 -0.34375,-0.296875 -0.21875,0 -0.296875,0.046875 -0.4375,0.25 l -3.921875,6 c -0.125,0.1875 -0.234375,0.359375 -0.96875,0.375 -0.140625,0 -0.3125,0 -0.3125,0.296875 0,0.078125 0.0625,0.171875 0.1875,0.171875 0.296875,0 0.640625,-0.03125 0.9375,-0.03125 0.375,0 0.75,0.03125 1.109375,0.03125 0.078125,0 0.265625,0 0.265625,-0.296875 0,-0.171875 -0.171875,-0.171875 -0.25,-0.171875 -0.078125,0 -0.359375,0 -0.578125,-0.109375 L 3.046875,-1.96875 h 2.6875 l 0.234375,1.453125 c -0.203125,0.03125 -0.5,0.046875 -0.65625,0.046875 -0.203125,0 -0.375,0 -0.375,0.296875 C 4.9375,-0.046875 5.046875,0 5.15625,0 5.5,0 6.3125,-0.03125 6.65625,-0.03125 c 0.21875,0 0.453125,0.015625 0.6875,0.015625 C 7.5625,-0.015625 7.8125,0 8.03125,0 8.125,0 8.3125,0 8.3125,-0.296875 c 0,-0.171875 -0.140625,-0.171875 -0.390625,-0.171875 -0.140625,0 -0.25,0 -0.390625,-0.015625 -0.125,0 -0.140625,-0.015625 -0.171875,-0.1875 z m -1.21875,1.484375 0.4375,2.875 h -2.3125 z m 0,0"
               id="id-da42e076-fa1a-4f15-a5e9-1ee27172856c" />
          </g>
          <g
             transform="translate(157.373,134.765)"
             id="g7382"
             style="stroke-width:0.231114">
            <path
               style="stroke:none;stroke-width:0"
               d="m 5.34375,-4 c -0.359375,0.109375 -0.53125,0.4375 -0.53125,0.6875 0,0.21875 0.15625,0.46875 0.484375,0.46875 0.359375,0 0.71875,-0.296875 0.71875,-0.78125 C 6.015625,-4.15625 5.5,-4.5 4.890625,-4.5 4.3125,-4.5 3.953125,-4.078125 3.8125,-3.890625 3.5625,-4.3125 3.015625,-4.5 2.4375,-4.5 c -1.25,0 -1.921875,1.21875 -1.921875,1.546875 0,0.140625 0.140625,0.140625 0.234375,0.140625 0.125,0 0.1875,0 0.234375,-0.125 0.28125,-0.90625 1,-1.203125 1.40625,-1.203125 0.375,0 0.5625,0.171875 0.5625,0.484375 0,0.203125 -0.140625,0.75 -0.234375,1.109375 L 2.375,-1.1875 c -0.140625,0.609375 -0.5,0.90625 -0.84375,0.90625 -0.046875,0 -0.28125,0 -0.46875,-0.140625 0.359375,-0.109375 0.53125,-0.453125 0.53125,-0.6875 0,-0.21875 -0.171875,-0.46875 -0.5,-0.46875 -0.34375,0 -0.71875,0.296875 -0.71875,0.78125 0,0.53125 0.53125,0.875 1.140625,0.875 0.5625,0 0.9375,-0.421875 1.0625,-0.609375 0.25,0.421875 0.8125,0.609375 1.375,0.609375 1.265625,0 1.9375,-1.21875 1.9375,-1.546875 0,-0.140625 -0.15625,-0.140625 -0.234375,-0.140625 -0.125,0 -0.1875,0 -0.234375,0.125 -0.28125,0.90625 -1,1.203125 -1.421875,1.203125 -0.375,0 -0.546875,-0.171875 -0.546875,-0.5 0,-0.203125 0.125,-0.734375 0.21875,-1.109375 0.0625,-0.25 0.296875,-1.1875 0.34375,-1.34375 0.15625,-0.609375 0.5,-0.90625 0.84375,-0.90625 0.0625,0 0.28125,0 0.484375,0.140625 z m 0,0"
               id="id-3b28353c-9a90-4bd5-afcb-0f488cbfdd9a" />
          </g>
        </g>
        <g
           style="fill:#000000;fill-opacity:1;stroke-width:0.231114"
           id="id-554596f2-a488-4d4e-a7d5-c5b45d170913">
          <g
             transform="translate(166.707,134.765)"
             id="g8507"
             style="stroke-width:0.231114">
            <path
               style="stroke:none;stroke-width:0"
               d="m 6.84375,-3.265625 c 0.15625,0 0.34375,0 0.34375,-0.1875 C 7.1875,-3.65625 7,-3.65625 6.859375,-3.65625 h -5.96875 c -0.140625,0 -0.328125,0 -0.328125,0.203125 0,0.1875 0.1875,0.1875 0.328125,0.1875 z m 0.015625,1.9375 c 0.140625,0 0.328125,0 0.328125,-0.203125 0,-0.1875 -0.1875,-0.1875 -0.34375,-0.1875 H 0.890625 c -0.140625,0 -0.328125,0 -0.328125,0.1875 0,0.203125 0.1875,0.203125 0.328125,0.203125 z m 0,0"
               id="id-a1da2aa5-39ab-42c0-a011-486286781be3" />
          </g>
        </g>
        <g
           style="fill:#000000;fill-opacity:1;stroke-width:0.231114"
           id="id-f5f4d99f-21ab-47a8-8e6d-8fad61486ccf">
          <g
             transform="translate(177.223,134.765)"
             id="g1990"
             style="stroke-width:0.231114">
            <path
               style="stroke:none;stroke-width:0"
               d="M 2.796875,-6.5625 C 2.84375,-6.703125 2.84375,-6.734375 2.84375,-6.734375 c 0,-0.140625 -0.109375,-0.1875 -0.21875,-0.1875 -0.046875,0 -0.046875,0 -0.078125,0.015625 l -1.28125,0.0625 c -0.140625,0 -0.3125,0.015625 -0.3125,0.296875 0,0.171875 0.1875,0.171875 0.25,0.171875 0.109375,0 0.296875,0 0.421875,0.03125 -0.078125,0.328125 -0.171875,0.765625 -0.28125,1.140625 l -0.6875,2.75 c -0.140625,0.5625 -0.140625,0.671875 -0.140625,0.90625 0,1.28125 0.953125,1.625 1.703125,1.625 1.796875,0 2.828125,-1.625 2.828125,-2.9375 C 5.046875,-4.09375 4.125,-4.5 3.296875,-4.5 c -0.46875,0 -0.875,0.1875 -1.078125,0.3125 z m -0.5625,6.28125 c -0.390625,0 -0.71875,-0.203125 -0.71875,-0.828125 0,-0.3125 0.09375,-0.6875 0.171875,-1 0.09375,-0.375 0.265625,-1.0625 0.34375,-1.359375 0.046875,-0.171875 0.609375,-0.671875 1.21875,-0.671875 0.625,0 0.671875,0.53125 0.671875,0.75 0,0.515625 -0.34375,1.75 -0.5,2.140625 -0.34375,0.796875 -0.90625,0.96875 -1.1875,0.96875 z m 0,0"
               id="id-e5bb82b2-ede5-48ae-99b0-39c1c207df97" />
          </g>
        </g>
      </g>
    </g>
    <rect
       style="fill:none;stroke:#ffffff;stroke-width:0.214842"
       id="rect1"
       width="63.164845"
       height="41.81184"
       x="73.018822"
       y="127.81893" />
  </g>
</svg>
