<?xml version="1.0" encoding="UTF-8"?>
<!-- Created with Inkscape (http://www.inkscape.org/) -->
<svg width="273" height="184" version="1.1" viewBox="0 0 273 184" xmlns="http://www.w3.org/2000/svg">
 <g fill="#ccc" stroke="#000" stroke-width=".6">
  <path transform="scale(1.3333)" d="m18.289 88.41h128.22v15.086h-128.22z"/>
  <path transform="scale(1.3333)" d="m61.316 33.738h128.22v15.086h-128.22z"/>
  <path transform="scale(1.3333)" d="m146.51 103.5 43.027-54.672v-15.086l-43.027 54.672z"/>
  <path transform="scale(1.3333)" d="m18.289 88.41 43.027-54.672h128.22l-43.027 54.672z"/>
 </g>
 <path transform="scale(1.3333)" d="m168.03 98.492v-49.367" fill="none" stroke="#000080" stroke-width=".9"/>
 <path transform="scale(1.3333)" d="m165.5 50.383 2.523-6.93 2.52 6.93c-1.469-1.258-3.567-1.258-5.043 0z" fill="#000080" fill-rule="evenodd"/>
 <path transform="scale(1.3333)" d="m82.398 123.75v-49.367" fill="none" stroke="#000080" stroke-width=".9"/>
 <path transform="scale(1.3333)" d="m79.879 75.645 2.519-6.934 2.52 6.934c-1.465-1.262-3.563-1.262-5.039 0z" fill="#000080" fill-rule="evenodd"/>
 <path transform="scale(1.3333)" d="m182.83 70.738c4.18-9.664-2.055-12.898-7.633-15.562" fill="none" stroke="#800000" stroke-width=".9"/>
 <path transform="scale(1.3333)" d="m175.25 57.996-5.172-5.262 7.34 0.711c-1.77 0.782-2.672 2.676-2.168 4.551z" fill="#800000" fill-rule="evenodd"/>
 <path transform="scale(1.3333)" d="m155.73 82.07c-1.523-13.07-0.91-16.418 4.121-22.965" fill="none" stroke="#800000" stroke-width=".9"/>
 <path transform="scale(1.3333)" d="m157.09 58.57 6.223-3.961-2.223 7.032c-0.398-1.895-2.063-3.172-4-3.071z" fill="#800000" fill-rule="evenodd"/>
 <path transform="scale(1.3333)" d="m102.11 95.773c4.18-9.664-2.054-12.898-7.629-15.562" fill="none" stroke="#800000" stroke-width=".9"/>
 <path transform="scale(1.3333)" d="m94.531 83.027-5.168-5.257 7.34 0.71c-1.769 0.782-2.676 2.676-2.172 4.547z" fill="#800000" fill-rule="evenodd"/>
 <path transform="scale(1.3333)" d="m67.867 109.66c-1.527-13.07-0.914-16.414 4.117-22.965" fill="none" stroke="#800000" stroke-width=".9"/>
 <path transform="scale(1.3333)" d="m69.219 86.156 6.219-3.961-2.223 7.032c-0.399-1.895-2.059-3.172-3.996-3.071z" fill="#800000" fill-rule="evenodd"/>
 <g stroke="#008000">
  <path transform="scale(1.3333)" d="m88.699 52.953v-25.918" fill="none" stroke-width=".9"/>
  <path transform="matrix(0 -1.3333 1.3333 0 0 0)" d="m-24.438 88.699-3.894 2.25v-4.5z" fill="#008000" fill-rule="evenodd" stroke-width=".6"/>
  <path transform="scale(1.3333)" d="m96.188 46.008v-25.918" fill="none" stroke-width=".9"/>
  <path transform="matrix(0 -1.3333 1.3333 0 0 0)" d="m-17.492 96.188-3.895 2.25v-4.5z" fill="#008000" fill-rule="evenodd" stroke-width=".6"/>
  <path transform="scale(1.3333)" d="m102.38 58.965v-25.918" fill="none" stroke-width=".9"/>
  <path transform="matrix(0 -1.3333 1.3333 0 0 0)" d="m-30.453 102.38-3.891 2.25v-4.5z" fill="#008000" fill-rule="evenodd" stroke-width=".6"/>
  <path transform="scale(1.3333)" d="m108.56 46.008v-25.918" fill="none" stroke-width=".9"/>
  <path transform="matrix(0 -1.3333 1.3333 0 0 0)" d="m-17.492 108.56-3.895 2.25v-4.5z" fill="#008000" fill-rule="evenodd" stroke-width=".6"/>
  <path transform="scale(1.3333)" d="m114.12 52.953v-25.918" fill="none" stroke-width=".9"/>
  <path transform="matrix(0 -1.3333 1.3333 0 0 0)" d="m-24.438 114.12-3.894 2.25v-4.5z" fill="#008000" fill-rule="evenodd" stroke-width=".6"/>
 </g>
 <path transform="scale(1.3333)" d="m18.289 95.953h23.629" fill="none" stroke="#00f" stroke-width=".75"/>
 <path transform="scale(1.3333)" d="m40.867 93.852 5.774 2.101-5.774 2.098c1.051-1.223 1.051-2.969 0-4.199z" fill="#00f" fill-rule="evenodd"/>
 <path transform="scale(1.3333)" d="m18.289 95.703v-23.625" fill="none" stroke="#00f" stroke-width=".75"/>
 <g>
  <path transform="scale(1.3333)" d="m16.188 73.125 2.101-5.773 2.098 5.773c-1.223-1.047-2.969-1.047-4.199 0z" fill="#00f" fill-rule="evenodd"/>
  <path transform="scale(1.3333)" d="m18.289 95.703 13.418-15.902" fill="#008000" stroke="#00f" stroke-width=".75"/>
  <path transform="scale(1.3333)" d="m29.426 79.25 5.328-3.059-2.121 5.766c-0.258-1.59-1.594-2.719-3.207-2.707z" fill="#00f" fill-rule="evenodd"/>
  <path transform="scale(1.3333)" d="m178.73 95.082 0.281 0.469c0.304 0.422 0.539 0.914 0.867 1.289 0.375 0.023 0.797 0.023 1.219 0.023-0.469-0.773-0.985-1.476-1.477-2.226 0.188-0.071 0.375-0.211 0.539-0.328 1.782-1.289 3.235-3.727 2.906-6.211-0.187-1.243-0.726-2.18-1.593-2.813-1.289-0.937-3.047-0.89-4.453-0.234-1.758 0.797-3.118 2.32-3.75 4.125-0.211 0.562-0.352 1.172-0.375 1.781-0.024 0.82 0.07 1.664 0.468 2.414 0.188 0.352 0.422 0.703 0.727 1.008 1.219 1.195 3.117 1.336 4.641 0.703zm-1.758-2.789c0.445 0.727 0.937 1.43 1.336 2.18-0.211 0.047-0.422 0.117-0.657 0.164-1.101 0.211-2.039-0.141-2.648-0.657-0.891-0.773-1.195-1.992-1.078-3.14 0.187-2.133 1.406-4.289 3.445-5.156 0.281-0.118 0.563-0.211 0.867-0.282 0.938-0.187 2.016-0.023 2.766 0.657 0.586 0.539 0.961 1.195 1.055 2.132 0.187 1.618-0.399 3.352-1.407 4.594-0.304 0.375-0.937 0.985-1.336 1.195-0.093 0.047-0.14 0-0.187-0.093l-0.773-1.149c-0.047-0.07-0.258-0.375-0.305-0.398-0.07-0.07-0.235-0.047-0.305-0.047z" fill="#000080"/>
  <path transform="scale(1.3333)" d="m184.98 92.492c0.118 0.235 0.258 0.422 0.399 0.633 0.094 0.117 1.008 1.5 1.055 1.547 0.023 0.047 0.117 0.14 0.117 0.211 0 0.07-0.117 0.14-0.164 0.187-0.469 0.422-2.461 2.297-2.532 2.368h0.797l0.235-0.211 1.945-1.946c0.422 0.727 0.82 1.453 1.289 2.133 0.258 0.024 0.539 0.024 0.82 0.024-0.14-0.211-1.546-2.297-1.593-2.344-0.024-0.071-0.094-0.141-0.094-0.188 0.023-0.07 0.117-0.14 0.164-0.187 0.164-0.164 0.328-0.305 0.492-0.469 0.164-0.141 1.828-1.688 1.875-1.758-0.281 0-0.539 0-0.797 0.024-0.679 0.609-1.312 1.265-1.992 1.875-0.398-0.633-0.773-1.289-1.219-1.875-0.257-0.024-0.539-0.024-0.797-0.024z" fill="#000080"/>
 </g>
 <g fill="#800000">
  <path transform="scale(1.3333)" d="m182.24 46.426-2.203 10.383c0.305 0 0.656 0.023 0.914-0.024l0.071-0.164 1.945-9.234h0.023c0.469 3.164 1.149 6.093 1.711 9.164 0.328 0 0.633 0.023 0.891-0.024l0.14-0.187 4.993-8.063 0.515-0.89h0.024l-2.016 9.422c0.305 0 0.656 0.023 0.914-0.024l0.07-0.164c0.141-0.75 0.305-1.476 0.469-2.226l1.664-7.969h-0.984c-0.117 0-0.281-0.024-0.375 0.047-0.07 0.047-0.141 0.164-0.188 0.257l-0.351 0.54c-0.938 1.546-4.945 7.945-5.11 8.32l-0.164-0.938-1.57-8.226z"/>
  <path transform="scale(1.3333)" d="m192.99 54.102c0.117 0.234 0.258 0.421 0.399 0.632 0.093 0.118 1.008 1.5 1.054 1.547 0.024 0.047 0.118 0.141 0.118 0.211s-0.118 0.141-0.164 0.188c-0.469 0.422-2.461 2.297-2.532 2.367h0.797l0.235-0.211 1.945-1.945c0.422 0.726 0.82 1.453 1.289 2.132 0.258 0.024 0.539 0.024 0.82 0.024-0.14-0.211-1.547-2.297-1.594-2.344-0.023-0.07-0.093-0.141-0.093-0.187 0.023-0.071 0.117-0.141 0.164-0.188 0.164-0.164 0.328-0.305 0.492-0.469 0.164-0.14 1.828-1.687 1.875-1.757-0.281 0-0.539 0-0.797 0.023-0.68 0.609-1.312 1.266-1.992 1.875-0.399-0.633-0.774-1.289-1.219-1.875-0.258-0.023-0.539-0.023-0.797-0.023z"/>
  <path transform="scale(1.3333)" d="m199.09 54.102c0.117 0.234 0.258 0.421 0.398 0.632 0.094 0.118 1.008 1.5 1.055 1.547 0.023 0.047 0.117 0.141 0.117 0.211s-0.117 0.141-0.164 0.188c-0.469 0.422-2.461 2.297-2.531 2.367h0.797l0.234-0.211 1.945-1.945c0.422 0.726 0.821 1.453 1.289 2.132 0.258 0.024 0.539 0.024 0.821 0.024-0.141-0.211-1.547-2.297-1.594-2.344-0.023-0.07-0.094-0.141-0.094-0.187 0.024-0.071 0.117-0.141 0.164-0.188 0.164-0.164 0.328-0.305 0.492-0.469 0.165-0.14 1.829-1.687 1.875-1.757-0.281 0-0.539 0-0.796 0.023-0.68 0.609-1.313 1.266-1.993 1.875-0.398-0.633-0.773-1.289-1.218-1.875-0.258-0.023-0.539-0.023-0.797-0.023z"/>
  <path transform="scale(1.3333)" d="m51.164 105.06-2.203 10.383c0.305 0 0.656 0.024 0.914-0.023l0.07-0.164 1.946-9.235h0.023c0.469 3.165 1.148 6.094 1.711 9.165 0.328 0 0.633 0.023 0.891-0.024l0.14-0.187 4.992-8.063 0.516-0.891h0.024l-2.016 9.422c0.305 0 0.656 0.024 0.914-0.023l0.07-0.164c0.141-0.75 0.305-1.477 0.469-2.227l1.664-7.969h-0.984c-0.117 0-0.282-0.023-0.375 0.047-0.071 0.047-0.141 0.164-0.188 0.258l-0.351 0.539c-0.938 1.547-4.946 7.946-5.11 8.321l-0.164-0.938-1.57-8.227z"/>
  <path transform="scale(1.3333)" d="m62.004 112.74c0.023 0.164 0.047 0.305 0.094 0.446 0.211 1.031 0.961 4.382 0.961 4.5-0.024 0.046-0.282 0.445-0.282 0.445-0.257 0.422-0.586 0.867-1.218 0.797-0.141 0-0.282-0.024-0.422-0.047-0.094-0.024-0.211-0.07-0.305-0.094l-0.07 0.656c0.328 0.047 0.89 0.118 1.218 0.024 0.657-0.188 1.125-0.891 1.43-1.383l0.516-0.82c0.281-0.469 2.672-4.266 2.836-4.524-0.258 0-0.516 0-0.727 0.024-0.258 0.375-0.469 0.75-0.703 1.125-0.609 1.008-1.266 1.945-1.805 3.023-0.14-1.5-0.515-2.765-0.797-4.172z"/>
  <path transform="scale(1.3333)" d="m68.312 112.74c0.024 0.164 0.047 0.305 0.094 0.446 0.211 1.031 0.961 4.382 0.961 4.5-0.023 0.046-0.281 0.445-0.281 0.445-0.258 0.422-0.586 0.867-1.219 0.797-0.14 0-0.281-0.024-0.422-0.047-0.093-0.024-0.211-0.07-0.304-0.094l-0.071 0.656c0.328 0.047 0.891 0.118 1.219 0.024 0.656-0.188 1.125-0.891 1.43-1.383l0.515-0.82c0.282-0.469 2.672-4.266 2.836-4.524-0.258 0-0.515 0-0.726 0.024-0.258 0.375-0.469 0.75-0.703 1.125-0.61 1.008-1.266 1.945-1.805 3.023-0.141-1.5-0.516-2.765-0.797-4.172z"/>
  <path transform="scale(1.3333)" d="m101.91 69.004-2.203 10.383c0.305 0 0.656 0.023 0.914-0.024l0.071-0.164 1.945-9.234h0.023c0.469 3.164 1.149 6.094 1.711 9.164 0.328 0 0.633 0.023 0.891-0.024l0.14-0.187 4.993-8.063 0.515-0.89h0.024l-2.016 9.422c0.305 0 0.656 0.023 0.914-0.024l0.07-0.164c0.141-0.75 0.305-1.476 0.469-2.226l1.664-7.969h-0.984c-0.117 0-0.281-0.024-0.375 0.047-0.07 0.047-0.141 0.164-0.188 0.258l-0.351 0.539c-0.938 1.547-4.945 7.945-5.11 8.32l-0.164-0.938-1.57-8.226z"/>
  <path transform="scale(1.3333)" d="m112.66 76.68c0.117 0.234 0.258 0.422 0.399 0.632 0.093 0.118 1.007 1.5 1.054 1.547 0.024 0.047 0.118 0.141 0.118 0.211 0 0.071-0.118 0.141-0.165 0.188-0.468 0.422-2.46 2.297-2.531 2.367h0.797l0.234-0.211 1.946-1.945c0.422 0.726 0.82 1.453 1.289 2.133 0.258 0.023 0.539 0.023 0.82 0.023-0.14-0.211-1.547-2.297-1.594-2.344-0.023-0.07-0.093-0.14-0.093-0.187 0.023-0.071 0.117-0.141 0.164-0.188 0.164-0.164 0.328-0.304 0.492-0.468 0.164-0.141 1.828-1.688 1.875-1.758-0.281 0-0.539 0-0.797 0.023-0.68 0.609-1.312 1.266-1.992 1.875-0.399-0.633-0.774-1.289-1.219-1.875-0.258-0.023-0.539-0.023-0.797-0.023z"/>
  <path transform="scale(1.3333)" d="m118.86 76.68c0.024 0.164 0.047 0.304 0.094 0.445 0.211 1.031 0.961 4.383 0.961 4.5-0.023 0.047-0.281 0.445-0.281 0.445-0.258 0.422-0.586 0.868-1.219 0.797-0.14 0-0.281-0.023-0.422-0.047-0.093-0.023-0.211-0.07-0.304-0.093l-0.071 0.656c0.328 0.047 0.891 0.117 1.219 0.023 0.656-0.187 1.125-0.89 1.43-1.383l0.515-0.82c0.282-0.469 2.672-4.265 2.836-4.523-0.258 0-0.515 0-0.726 0.023-0.258 0.375-0.469 0.75-0.703 1.125-0.61 1.008-1.266 1.945-1.805 3.024-0.141-1.5-0.516-2.766-0.797-4.172z"/>
  <path transform="scale(1.3333)" d="m130.65 54.602-2.203 10.382c0.305 0 0.657 0.024 0.914-0.023l0.071-0.164 1.945-9.235h0.023c0.469 3.165 1.149 6.094 1.711 9.165 0.329 0 0.633 0.023 0.891-0.024l0.141-0.187 4.992-8.063 0.515-0.891h0.024l-2.016 9.422c0.305 0 0.656 0.024 0.914-0.023l0.071-0.164c0.14-0.75 0.304-1.477 0.468-2.227l1.664-7.968h-0.984c-0.117 0-0.281-0.024-0.375 0.046-0.07 0.047-0.141 0.164-0.187 0.258l-0.352 0.539c-0.937 1.547-4.945 7.946-5.109 8.321l-0.164-0.938-1.571-8.226z"/>
  <path transform="scale(1.3333)" d="m141.4 62.281c0.117 0.235 0.257 0.422 0.398 0.633 0.094 0.117 1.008 1.5 1.055 1.547 0.023 0.047 0.117 0.141 0.117 0.211s-0.117 0.14-0.164 0.187c-0.469 0.422-2.461 2.297-2.531 2.368h0.796l0.235-0.211 1.945-1.946c0.422 0.727 0.82 1.453 1.289 2.133 0.258 0.024 0.539 0.024 0.82 0.024-0.14-0.211-1.546-2.297-1.593-2.344-0.024-0.071-0.094-0.141-0.094-0.188 0.023-0.07 0.117-0.14 0.164-0.187 0.164-0.164 0.328-0.305 0.492-0.469 0.164-0.141 1.828-1.687 1.875-1.758-0.281 0-0.539 0-0.797 0.024-0.679 0.609-1.312 1.265-1.992 1.875-0.398-0.633-0.773-1.289-1.219-1.875-0.257-0.024-0.539-0.024-0.796-0.024z"/>
  <path transform="scale(1.3333)" d="m147.59 62.281c0.023 0.164 0.047 0.305 0.094 0.446 0.21 1.031 0.96 4.382 0.96 4.5-0.023 0.046-0.281 0.445-0.281 0.445-0.258 0.422-0.586 0.867-1.219 0.797-0.14 0-0.281-0.024-0.421-0.047-0.094-0.024-0.211-0.07-0.305-0.094l-0.07 0.656c0.328 0.047 0.89 0.118 1.218 0.024 0.657-0.188 1.125-0.891 1.43-1.383l0.516-0.82c0.281-0.469 2.672-4.266 2.836-4.524-0.258 0-0.516 0-0.727 0.024-0.258 0.375-0.469 0.75-0.703 1.125-0.61 1.008-1.266 1.945-1.805 3.023-0.14-1.5-0.515-2.765-0.797-4.172z"/>
 </g>
 <path transform="scale(1.3333)" d="m94.004 119.29 0.281 0.469c0.305 0.422 0.539 0.914 0.867 1.289 0.375 0.023 0.797 0.023 1.219 0.023-0.469-0.773-0.984-1.476-1.476-2.226 0.187-0.071 0.375-0.211 0.539-0.328 1.781-1.289 3.234-3.727 2.906-6.211-0.188-1.243-0.727-2.18-1.594-2.813-1.289-0.937-3.047-0.89-4.453-0.234-1.758 0.797-3.117 2.32-3.75 4.125-0.211 0.562-0.352 1.172-0.375 1.781-0.023 0.82 0.07 1.664 0.469 2.414 0.187 0.352 0.422 0.703 0.726 1.008 1.219 1.195 3.117 1.336 4.641 0.703zm-1.758-2.789c0.445 0.727 0.938 1.43 1.336 2.18-0.211 0.047-0.422 0.117-0.656 0.164-1.102 0.211-2.039-0.141-2.649-0.656-0.89-0.774-1.195-1.993-1.078-3.141 0.188-2.133 1.406-4.289 3.446-5.156 0.281-0.118 0.562-0.211 0.867-0.282 0.937-0.187 2.015-0.023 2.765 0.657 0.586 0.539 0.961 1.195 1.055 2.132 0.188 1.618-0.398 3.352-1.406 4.594-0.305 0.375-0.938 0.985-1.336 1.196-0.094 0.046-0.141 0-0.188-0.094l-0.773-1.149c-0.047-0.07-0.258-0.375-0.305-0.398-0.07-0.07-0.234-0.047-0.304-0.047z" fill="#000080"/>
 <path transform="scale(1.3333)" d="m100.35 116.7c0.023 0.164 0.046 0.305 0.093 0.445 0.211 1.032 0.961 4.383 0.961 4.5-0.023 0.047-0.281 0.446-0.281 0.446-0.258 0.422-0.586 0.867-1.219 0.797-0.14 0-0.281-0.024-0.422-0.047-0.093-0.024-0.211-0.071-0.304-0.094l-0.071 0.656c0.329 0.047 0.891 0.117 1.219 0.024 0.656-0.188 1.125-0.891 1.43-1.383l0.515-0.82c0.282-0.469 2.672-4.266 2.836-4.524-0.257 0-0.515 0-0.726 0.024-0.258 0.375-0.469 0.75-0.703 1.125-0.61 1.007-1.266 1.945-1.805 3.023-0.141-1.5-0.516-2.766-0.797-4.172z" fill="#000080"/>
 <g fill="#00f">
  <path transform="scale(1.3333)" d="m34.348 100.76c-0.063 0.023-0.129 0.078-0.18 0.117-0.23 0.168-0.465 0.258-0.773 0.359-0.415 0.118-0.934 0.145-1.231-0.218-0.23-0.27-0.219-0.84-0.117-1.227 0-0.027 0-0.066 0.027-0.078 0.039-0.039 0.117-0.027 0.156-0.027h2.379c0.036 0 0.075-0.012 0.075-0.079 0.015-0.05 0.027-0.101 0.027-0.14 0.078-0.453 0.078-0.891-0.102-1.227-0.285-0.48-0.918-0.543-1.421-0.48-0.403 0.027-0.75 0.183-1.008 0.363-0.621 0.426-0.918 1.176-1.024 1.899-0.062 0.425-0.051 0.878 0.196 1.242 0.386 0.605 1.406 0.711 2.246 0.426 0.156-0.051 0.312-0.129 0.453-0.196 0.066-0.023 0.156-0.062 0.195-0.113 0.039-0.055 0.078-0.481 0.102-0.621zm-0.309-1.449h-1.859c0.023-0.118 0.074-0.219 0.129-0.321 0.191-0.351 0.488-0.636 0.89-0.711 0.246-0.039 0.543 0 0.699 0.219 0.114 0.141 0.153 0.359 0.153 0.555 0 0.078-0.012 0.168-0.012 0.258z"/>
  <path transform="scale(1.3333)" d="m35.734 100.26c0.063 0.129 0.141 0.23 0.219 0.347 0.051 0.067 0.555 0.829 0.582 0.856 0.012 0.023 0.063 0.074 0.063 0.113s-0.063 0.078-0.09 0.106c-0.258 0.23-1.356 1.265-1.395 1.304h0.438l0.129-0.117 1.074-1.07c0.234 0.398 0.453 0.801 0.711 1.176 0.14 0.011 0.297 0.011 0.453 0.011-0.078-0.117-0.856-1.265-0.879-1.293-0.016-0.039-0.051-0.078-0.051-0.101 0.012-0.039 0.063-0.078 0.09-0.106 0.09-0.09 0.18-0.168 0.27-0.258 0.09-0.078 1.007-0.929 1.035-0.968-0.156 0-0.297 0-0.442 0.011-0.375 0.336-0.722 0.7-1.097 1.036-0.219-0.348-0.426-0.711-0.672-1.036-0.141-0.011-0.297-0.011-0.438-0.011z"/>
  <path transform="scale(1.3333)" d="m37.965 74.664c-0.063 0.027-0.129 0.078-0.18 0.117-0.234 0.168-0.465 0.258-0.777 0.36-0.414 0.117-0.93 0.144-1.227-0.219-0.234-0.27-0.219-0.84-0.117-1.227 0-0.027 0-0.066 0.027-0.078 0.039-0.039 0.118-0.027 0.157-0.027h2.375c0.039 0 0.078-0.012 0.078-0.078 0.015-0.051 0.027-0.102 0.027-0.141 0.078-0.453 0.078-0.891-0.105-1.226-0.282-0.481-0.918-0.543-1.422-0.481-0.399 0.027-0.746 0.184-1.008 0.363-0.617 0.426-0.918 1.176-1.02 1.899-0.066 0.426-0.05 0.879 0.196 1.242 0.386 0.605 1.406 0.711 2.246 0.426 0.156-0.051 0.312-0.129 0.453-0.192 0.066-0.027 0.156-0.066 0.195-0.117 0.039-0.055 0.078-0.48 0.102-0.621zm-0.309-1.449h-1.863c0.027-0.113 0.078-0.219 0.129-0.32 0.195-0.352 0.492-0.637 0.894-0.711 0.246-0.039 0.543 0 0.696 0.218 0.117 0.141 0.156 0.36 0.156 0.555 0 0.078-0.012 0.168-0.012 0.258z"/>
  <path transform="scale(1.3333)" d="m39.402 74.168c0.012 0.09 0.024 0.168 0.051 0.246 0.117 0.566 0.531 2.418 0.531 2.481-0.015 0.027-0.156 0.246-0.156 0.246-0.144 0.23-0.324 0.476-0.672 0.437-0.078 0-0.156-0.012-0.234-0.023-0.051-0.012-0.117-0.039-0.168-0.051l-0.039 0.359c0.183 0.028 0.492 0.067 0.672 0.016 0.363-0.106 0.621-0.492 0.789-0.766l0.285-0.449c0.156-0.262 1.473-2.355 1.562-2.496-0.14 0-0.281 0-0.398 0.012-0.145 0.207-0.258 0.414-0.387 0.621-0.34 0.554-0.699 1.074-0.996 1.668-0.078-0.828-0.285-1.528-0.441-2.301z"/>
  <path transform="scale(1.3333)" d="m10.984 72.164c-0.066 0.027-0.129 0.078-0.179 0.117-0.235 0.168-0.469 0.258-0.778 0.364-0.414 0.113-0.929 0.14-1.226-0.223-0.235-0.27-0.223-0.84-0.117-1.227 0-0.027 0-0.062 0.027-0.078 0.035-0.039 0.113-0.023 0.152-0.023h2.379c0.039 0 0.078-0.016 0.078-0.078 0.012-0.051 0.028-0.106 0.028-0.145 0.074-0.449 0.074-0.891-0.106-1.226-0.285-0.477-0.918-0.543-1.422-0.477-0.402 0.023-0.75 0.18-1.008 0.359-0.621 0.426-0.917 1.176-1.019 1.903-0.066 0.425-0.055 0.879 0.191 1.238 0.387 0.609 1.411 0.711 2.25 0.43 0.157-0.055 0.309-0.133 0.454-0.196 0.062-0.027 0.152-0.066 0.191-0.117s0.078-0.476 0.105-0.621zm-0.312-1.445h-1.86c0.028-0.117 0.079-0.223 0.129-0.324 0.196-0.348 0.493-0.633 0.891-0.711 0.246-0.039 0.543 0 0.699 0.218 0.117 0.145 0.157 0.364 0.157 0.559 0 0.074-0.016 0.168-0.016 0.258z"/>
  <path transform="scale(1.3333)" d="m12.586 71.668-0.063 0.324h1.758l-1.668 1.578c-0.207 0.207-0.441 0.399-0.633 0.606-0.011 0.078-0.039 0.144-0.05 0.219 0.785 0 1.625 0.015 2.375 0 0.054-0.102 0.066-0.219 0.093-0.321h-1.863l2.301-2.183c0.027-0.067 0.039-0.145 0.051-0.223z"/>
 </g>
 <g fill="#008000">
  <path transform="scale(1.3333)" d="m76.863 13.949-0.09 0.41h0.711c-0.257 1.141-0.492 2.329-0.738 3.481 0.168 0 0.363 0.012 0.504-0.016l0.027-0.062c0.18-0.879 0.387-1.735 0.571-2.625 0.062-0.246 0.09-0.532 0.168-0.762l0.074-0.016h0.933l0.09-0.41h-1.035c0.078-0.246 0.106-0.492 0.156-0.738 0.024-0.117 0.039-0.234 0.09-0.336 0.207-0.348 0.75-0.465 1.254-0.387 0.117 0.024 0.231 0.063 0.348 0.09l0.09-0.465c-0.297-0.054-0.618-0.09-0.918-0.054-0.555 0.078-1.121 0.453-1.317 0.984-0.078 0.195-0.195 0.773-0.195 0.773 0 0.039 0 0.094-0.039 0.118-0.035 0.027-0.141 0.015-0.18 0.015z"/>
  <path transform="scale(1.3333)" d="m84.078 16.844c-0.062 0.023-0.129 0.078-0.18 0.117-0.234 0.168-0.464 0.258-0.777 0.359-0.414 0.118-0.93 0.145-1.226-0.218-0.235-0.274-0.219-0.84-0.118-1.227 0-0.027 0-0.066 0.028-0.078 0.039-0.039 0.117-0.027 0.152-0.027h2.379c0.039 0 0.078-0.012 0.078-0.079 0.012-0.05 0.027-0.101 0.027-0.14 0.079-0.453 0.079-0.891-0.105-1.227-0.281-0.48-0.918-0.543-1.422-0.48-0.398 0.027-0.75 0.179-1.008 0.363-0.621 0.426-0.918 1.176-1.019 1.898-0.067 0.426-0.051 0.879 0.191 1.243 0.391 0.605 1.41 0.711 2.25 0.425 0.156-0.05 0.313-0.128 0.453-0.195 0.067-0.023 0.157-0.062 0.196-0.113 0.039-0.055 0.078-0.481 0.101-0.621zm-0.308-1.449h-1.864c0.028-0.118 0.078-0.219 0.129-0.325 0.195-0.347 0.492-0.632 0.895-0.711 0.246-0.035 0.543 0 0.695 0.223 0.117 0.141 0.156 0.359 0.156 0.555 0 0.078-0.011 0.168-0.011 0.258z"/>
  <path transform="scale(1.3333)" d="m85.68 16.348-0.063 0.32h1.758l-1.668 1.578c-0.207 0.207-0.441 0.402-0.633 0.609-0.012 0.079-0.039 0.141-0.051 0.219 0.786 0 1.629 0.012 2.375 0 0.055-0.105 0.067-0.219 0.094-0.324h-1.863l2.301-2.184c0.027-0.066 0.039-0.14 0.05-0.218z"/>
 </g>
</svg>
